Coordinates
version=1
nRows=4
nColumns=114
inDegrees=yes

Units are S.I. units (second, meters, Newtons, ...)
If the header above contains a line with 'inDegrees', this indicates whether rotational values are in degrees (yes) or radians (no).

endheader 
time	pelvis_tilt	pelvis_list	pelvis_rotation	pelvis_tx	pelvis_ty	pelvis_tz	hip_flexion_l	hip_adduction_l	hip_rotation_l	hip_flexion_r	hip_adduction_r	hip_rotation_r	knee_angle_l	knee_angle_r	ankle_angle_l	ankle_angle_r	subtalar_angle_l	subtalar_angle_r	mtp_angle_l	mtp_angle_r	lumbar_extension	lumbar_bending	lumbar_rotation	arm_flex_l	arm_add_l	arm_rot_l	arm_flex_r	arm_add_r	arm_rot_r	elbow_flex_l	elbow_flex_r	pro_sup_l	pro_sup_r	addbrev_l/activation	addlong_l/activation	addmagDist_l/activation	addmagIsch_l/activation	addmagMid_l/activation	addmagProx_l/activation	bflh_l/activation	bfsh_l/activation	edl_l/activation	ehl_l/activation	fdl_l/activation	fhl_l/activation	gaslat_l/activation	gasmed_l/activation	glmax1_l/activation	glmax2_l/activation	glmax3_l/activation	glmed1_l/activation	glmed2_l/activation	glmed3_l/activation	glmin1_l/activation	glmin2_l/activation	glmin3_l/activation	grac_l/activation	iliacus_l/activation	perbrev_l/activation	perlong_l/activation	piri_l/activation	psoas_l/activation	recfem_l/activation	sart_l/activation	semimem_l/activation	semiten_l/activation	soleus_l/activation	tfl_l/activation	tibant_l/activation	tibpost_l/activation	vasint_l/activation	vaslat_l/activation	vasmed_l/activation	addbrev_r/activation	addlong_r/activation	addmagDist_r/activation	addmagIsch_r/activation	addmagMid_r/activation	addmagProx_r/activation	bflh_r/activation	bfsh_r/activation	edl_r/activation	ehl_r/activation	fdl_r/activation	fhl_r/activation	gaslat_r/activation	gasmed_r/activation	glmax1_r/activation	glmax2_r/activation	glmax3_r/activation	glmed1_r/activation	glmed2_r/activation	glmed3_r/activation	glmin1_r/activation	glmin2_r/activation	glmin3_r/activation	grac_r/activation	iliacus_r/activation	perbrev_r/activation	perlong_r/activation	piri_r/activation	psoas_r/activation	recfem_r/activation	sart_r/activation	semimem_r/activation	semiten_r/activation	soleus_r/activation	tfl_r/activation	tibant_r/activation	tibpost_r/activation	vasint_r/activation	vaslat_r/activation	vasmed_r/activation	
         10.10000000	          1.24441412	         -0.70828566	         -7.65508278	         -5.98200988	          0.95024911	          0.07830918	          6.77880123	          5.68110829	          6.24021554	         35.40829981	         -2.47202494	        -12.45132421	         50.33171435	         85.51287729	         22.32163341	        -10.59282351	        -11.89531984	        -28.41302305	        -44.99526134	        -44.99290834	        -10.37508975	          8.08756038	        -35.06310616	         52.84536232	        -19.35027238	        455.38857828	       -347.26744483	          0.95555502	       -102.88503965	         36.49169502	        115.65032522	         16.10326053	        112.83820703	          0.05878952	          0.45605433	          0.01011677	          0.01010257	          0.01023036	          0.02287281	          0.01023998	          0.21254412	          0.12343136	          0.06742845	          0.01042566	          0.01009308	          0.01004816	          0.01003551	          0.01043310	          0.01012998	          0.01008483	          0.01663514	          0.01537805	          0.01402488	          0.05007100	          0.07037381	          0.05027267	          0.05968503	          0.35087661	          0.01731861	          0.01387396	          0.02115247	          0.43432087	          0.59234113	          0.24969860	          0.01067255	          0.01098939	          0.01001153	          0.54748010	          0.20914067	          0.01663480	          0.01004922	          0.01001719	          0.01003539	          0.01011681	          0.01819948	          0.01030728	          0.03783172	          0.01008613	          0.01019723	          0.01596527	          0.01033080	          0.10632953	          0.01584187	          0.01160505	          0.01130040	          0.02439382	          0.04251499	          0.16963744	          0.36353568	          0.18065433	          0.13954481	          0.13946365	          0.15526244	          0.01168017	          0.04661675	          0.07280103	          0.01012358	          0.01028483	          0.01225945	          0.01411908	          0.11598055	          0.01013114	          0.20229609	          0.01043504	          0.01168967	          0.01046787	          0.02232674	          0.02496428	          0.05583475	          0.01083349	          0.07516842	          0.18012495	          0.09643895	
         10.11000000	          0.46357516	         -1.60243559	         -9.71454630	         -5.94811666	          0.97907056	          0.07403391	          5.28183603	          4.88379105	          6.47768467	         39.70710829	         -2.36133103	        -11.86936969	         48.70120258	         85.05650564	         25.06145531	        -14.04132814	        -11.76418066	        -31.78209879	        -39.73013709	        -39.59875374	         -9.65810859	         10.11739425	        -36.06201575	         53.58705273	        -20.62605644	        462.33878827	       -345.05211237	          2.38495530	        -81.15882826	         40.40755605	        124.21968234	         19.50535164	        110.66339116	          0.04942737	          0.44329858	          0.01018439	          0.01014774	          0.01056623	          0.01970234	          0.01016145	          0.17728937	          0.10290559	          0.05714793	          0.02237992	          0.01321555	          0.01034551	          0.01007398	          0.01018169	          0.01008731	          0.01007985	          0.01531776	          0.01331199	          0.01191991	          0.04715561	          0.05945250	          0.04254828	          0.04981581	          0.29273415	          0.01448983	          0.01159110	          0.01775151	          0.36209030	          0.56501939	          0.20830429	          0.01058297	          0.01063414	          0.01003087	          0.47615247	          0.17437960	          0.03705187	          0.01007249	          0.01002522	          0.01005241	          0.01265500	          0.01571801	          0.05617557	          0.09931425	          0.01786850	          0.01178232	          0.01338043	          0.01075740	          0.14597639	          0.03570133	          0.01084838	          0.01046065	          0.02033994	          0.03543212	          0.14142275	          0.30297628	          0.15063310	          0.11661390	          0.11631597	          0.12943947	          0.03590330	          0.03962702	          0.06081410	          0.01089181	          0.01235332	          0.03958072	          0.03924099	          0.09668442	          0.01113388	          0.16858721	          0.01089737	          0.01024856	          0.01066499	          0.01860771	          0.02186918	          0.07629690	          0.01014347	          0.06269573	          0.15011807	          0.08040039	
         10.12000000	         -0.36625934	         -2.55544631	        -11.22195917	         -5.91526209	          1.00722443	          0.06839306	          4.31482970	          4.22775541	          7.36891446	         43.32798544	         -2.54460279	        -12.30276157	         47.29010797	         83.38494530	         26.73542986	        -15.45432601	        -11.65541512	        -33.60118285	        -35.06846207	        -34.83022330	         -9.11233218	         12.27262551	        -37.53883134	         56.13604600	        -21.64262505	        471.19395407	       -339.90466171	          3.85592458	        -59.84891127	         46.37179778	        126.40944182	         19.81448868	        114.12802133	          0.04125431	          0.36971114	          0.01013766	          0.01011830	          0.01033468	          0.01657722	          0.01009046	          0.14800499	          0.09178946	          0.04781122	          0.01893587	          0.01151636	          0.05422364	          0.02486696	          0.01014044	          0.01006933	          0.01005817	          0.13094632	          0.01363542	          0.01059029	          0.08316948	          0.06009612	          0.03931122	          0.04154711	          0.27533025	          0.01223018	          0.01161694	          0.01489973	          0.30256477	          0.55949988	          0.17437333	          0.01026092	          0.01022418	          0.01006314	          0.46236973	          0.15385387	          0.03126942	          0.01008184	          0.01002842	          0.01005895	          0.01519751	          0.01513885	          0.07246735	          0.08967290	          0.02549829	          0.01319456	          0.01144847	          0.01043717	          0.17621817	          0.04111482	          0.01112645	          0.01056627	          0.01696296	          0.02952998	          0.11799467	          0.25256401	          0.12615103	          0.09742467	          0.09713765	          0.10796576	          0.03079322	          0.03725283	          0.05098484	          0.01224261	          0.01152148	          0.03364593	          0.08505405	          0.08063677	          0.01066535	          0.14050288	          0.01042110	          0.06536398	          0.02638628	          0.01550905	          0.01858193	          0.12620588	          0.01025271	          0.05228529	          0.12510968	          0.06702437	
         10.13000000	         -1.18931680	         -3.59555064	        -12.61557589	         -5.88250160	          1.03491678	          0.06241859	          3.46375060	          3.49923376	          8.43837039	         46.18260830	         -2.68767675	        -13.27694901	         45.72149731	         80.61033726	         27.71697772	        -14.96885001	        -10.92771078	        -34.09448437	        -30.96946009	        -30.61738331	         -8.76215129	         14.52962418	        -38.78514620	         58.98050819	        -21.73326167	        477.25775353	       -332.68861400	          6.49836664	        -42.26387274	         52.97070266	        121.99723768	         22.56430394	        118.07586897	          0.03441399	          0.30824225	          0.01010611	          0.01009804	          0.01020481	          0.01392445	          0.01006087	          0.12398020	          0.07657193	          0.05324917	          0.02205419	          0.01731305	          0.04569584	          0.06876106	          0.01011927	          0.01005929	          0.01004603	          0.10959052	          0.04151312	          0.01065386	          0.12786558	          0.11261360	          0.05742074	          0.03464583	          0.31017488	          0.01032091	          0.01006962	          0.01253537	          0.30081847	          0.54515200	          0.18152434	          0.01015871	          0.01013715	          0.01010234	          0.46405359	          0.12856244	          0.05196391	          0.01009120	          0.01003124	          0.01006498	          0.01285181	          0.01277658	          0.06046846	          0.07480297	          0.02133912	          0.01171049	          0.10825172	          0.01057128	          0.17290867	          0.04385697	          0.01029329	          0.01011867	          0.01414883	          0.02461099	          0.10284864	          0.22181851	          0.10529914	          0.08125253	          0.08124530	          0.09034375	          0.02583702	          0.03188244	          0.04834751	          0.01130737	          0.01070923	          0.04725836	          0.07095586	          0.07735876	          0.01037719	          0.11709228	          0.01047368	          0.20079085	          0.03627624	          0.01292648	          0.01600318	          0.17861140	          0.01005057	          0.04359385	          0.10426389	          0.05586755	
